<svg width="1440" height="1143" viewBox="0 0 1440 1143" fill="none" xmlns="http://www.w3.org/2000/svg">
<path d="M1496.92 373.232L1496.89 373.287L1496.88 373.347C1495.79 379.825 1490.74 385.192 1481.91 389.549C1473.08 393.904 1460.58 397.2 1444.8 399.572C1413.23 404.315 1368.67 405.347 1314.48 403.884C1217.21 401.257 1088.99 390.594 949.366 378.983C933.434 377.658 917.353 376.321 901.154 374.981C742.994 361.908 573.459 348.661 419.608 345.051C265.808 341.442 127.629 347.459 32.1439 372.928C30.5953 372.869 29.1195 371.667 27.7477 369.116C26.3675 366.55 25.1753 362.764 24.1634 357.899C22.1412 348.178 20.866 334.293 20.17 317.612C18.7784 284.257 19.706 239.819 21.5625 195.383C23.4189 150.95 26.2035 106.531 28.5241 73.2196C29.6844 56.5641 30.7287 42.6859 31.4829 32.9717C31.86 28.1147 32.1645 24.2986 32.3748 21.6969C32.48 20.3961 32.5615 19.3988 32.6168 18.7269C32.6369 18.4831 32.6535 18.2821 32.6665 18.125C32.8601 18.1067 33.1209 18.0822 33.4476 18.0517C34.2409 17.9778 35.4233 17.8686 36.9792 17.728C40.0909 17.4466 44.6966 17.0391 50.6717 16.5346C62.6218 15.5255 80.0491 14.1282 101.957 12.5756C145.772 9.47046 207.507 5.74426 279.185 3.26012C422.546 -1.70832 605.662 -1.70731 764.728 18.1629C923.873 38.0428 1107.05 38.0418 1250.43 33.0727C1322.12 30.5881 1383.87 26.8611 1427.69 23.7553C1449.61 22.2024 1467.04 20.8048 1478.99 19.7953C1484.97 19.2906 1489.58 18.8829 1492.69 18.6014C1494.25 18.4606 1495.43 18.3514 1496.23 18.2774C1496.5 18.2515 1496.73 18.2299 1496.91 18.2128L1496.94 18.5795C1496.98 19.159 1497.04 20.0198 1497.12 21.1447C1497.27 23.3946 1497.49 26.7012 1497.77 30.9275C1498.32 39.3801 1499.08 51.5116 1499.92 66.2262C1501.61 95.6559 1503.64 135.417 1505 176.746C1506.35 218.076 1507.03 260.966 1506.01 296.656C1505.5 314.502 1504.57 330.54 1503.1 343.679C1501.62 356.833 1499.59 367.032 1496.92 373.232Z" fill="#FFDE00" stroke="black"/>
</svg>
