<svg width="1440" height="489" viewBox="0 0 1440 489" fill="none" xmlns="http://www.w3.org/2000/svg">
<path d="M-8.16272 183.064C-8.132 182.984 -8.10691 182.922 -8.08777 182.874C-8.04127 182.837 -7.97824 182.787 -7.89882 182.723C-7.70748 182.57 -7.42099 182.342 -7.04109 182.042C-6.28129 181.442 -5.14785 180.555 -3.65479 179.406C-0.668653 177.108 3.75595 173.763 9.50697 169.581C21.0091 161.215 37.8165 149.497 59.0327 136.088C101.466 109.27 161.53 75.696 232.054 48.6667C373.112 -5.3963 555.927 -33.2459 723.235 71.3842C890.86 176.212 1102.23 197.23 1271.64 192.06C1356.35 189.475 1430.59 180.34 1483.66 171.853C1510.19 167.609 1531.43 163.526 1546.03 160.504C1553.34 158.994 1558.98 157.748 1562.8 156.88C1564.71 156.446 1566.17 156.106 1567.14 155.875C1567.35 155.825 1567.54 155.78 1567.71 155.741L1444.71 488.337C1164.01 370.441 840.921 307.367 566.479 284.689C429.177 273.344 304.042 272.108 202.473 279.181C101.495 286.212 23.7442 301.458 -19.4998 323.187C-19.473 265.933 -16.6122 230.832 -13.7547 210.038C-12.3192 199.592 -10.885 192.76 -9.81233 188.545C-9.27604 186.438 -8.8303 184.986 -8.52025 184.064C-8.36523 183.603 -8.24417 183.275 -8.16272 183.064Z" fill="#FFDE00" stroke="black"/>
</svg>
